<svg xmlns="http://www.w3.org/2000/svg" fill="#fff" viewBox="0 0 24 24"><path d="M20.52 3.48a11.75 11.75 0 0 0-8.32-3.46A11.9 11.9 0 0 0 3.5 19.5L.78 23.92l5.1-1.34A11.9 11.9 0 0 0 24 12a11.75 11.75 0 0 0-3.48-8.52ZM12 21a9 9 0 0 1-4.85-1.4l-.35-.22-3.02.8.82-2.96-.23-.35A8.94 8.94 0 1 1 12 21Zm4.68-6.98c-.25-.12-1.5-.74-1.74-.82s-.4-.13-.57.13c-.17.25-.66.82-.8.99-.14.17-.29.2-.54.07a7.26 7.26 0 0 1-3.64-3.16c-.28-.47.28-.43.8-1.41.09-.2.05-.37-.02-.5-.07-.12-.57-1.37-.79-1.87s-.42-.41-.58-.41c-.14 0-.3 0-.45.01a.86.86 0 0 0-.62.29c-.21.24-.82.8-.82 1.94s.84 2.26.95 2.41a11.08 11.08 0 0 0 4.47 4.33 5.05 5.05 0 0 0 2.37.64c1.14 0 1.81-.56 2.01-.79.2-.23.86-1 .98-1.65.12-.66.12-1.22.08-1.34s-.23-.17-.47-.28Z"/></svg>
